<svg width="39" height="46" fill="none" xmlns="http://www.w3.org/2000/svg"><path d="M11.244 6.762c.656 1.228.948 1.879.292 2.674-.22.29-.22.795.146 1.012.146.072.291.144.437.144.22 0 .438-.072.584-.289 1.177-1.508.516-2.886-.054-4.072a47.795 47.795 0 01-.092-.192c-.056-.111-.112-.217-.166-.32-.16-.303-.309-.586-.418-.909-.438-1.301-.146-2.385.876-3.614.292-.29.22-.795-.073-1.012-.292-.29-.803-.217-1.021.072-1.387 1.59-1.752 3.253-1.168 4.988a4.8 4.8 0 00.657 1.518zm6.86 0c.657 1.228.949 1.879.292 2.674-.219.29-.219.795.146 1.012.146.072.292.144.438.144.219 0 .438-.072.584-.289 1.177-1.508.515-2.886-.054-4.072a47.15 47.15 0 01-.092-.192 15.426 15.426 0 00-.167-.32 6.106 6.106 0 01-.417-.909c-.438-1.301-.146-2.385.876-3.614.292-.29.219-.795-.073-1.012-.292-.29-.803-.217-1.022.072-1.387 1.59-1.752 3.253-1.168 4.988.123.484.347.918.546 1.3.038.075.076.147.111.218zm7.152 2.674c.657-.795.365-1.446-.291-2.674l-.112-.217c-.198-.383-.423-.817-.545-1.301-.584-1.735-.22-3.397 1.167-4.988.22-.289.73-.361 1.022-.072.292.217.365.723.073 1.012-1.022 1.229-1.314 2.313-.876 3.614.11.323.258.606.418.908l.166.32.092.193c.57 1.186 1.231 2.564.054 4.072-.146.217-.365.29-.584.29-.146 0-.292-.073-.438-.145-.364-.217-.364-.723-.146-1.012zM3.434 20.856l-2.7.073a.728.728 0 00-.73.723c0 .36.365.722.73.722l2.7-.072c.438 0 .73-.361.73-.723 0-.361-.365-.723-.73-.723z" fill="#444"/><path fill-rule="evenodd" clip-rule="evenodd" d="M36.934 15.797c0-.434.292-.723.73-.723.365 0 .73.289.73.723v6.36H34.16V41.24c0 2.241-1.825 4.12-4.16 4.12-1.46 0-2.774-.722-3.504-1.879-.73 1.157-2.043 1.88-3.503 1.88s-2.773-.723-3.503-1.88c-.73 1.157-2.044 1.88-3.504 1.88s-2.773-.723-3.503-1.88c-.73 1.157-2.043 1.88-3.503 1.88-2.263 0-4.16-1.808-4.16-4.12V18.615c0-2.241 1.824-4.12 4.16-4.12 1.46 0 2.773.722 3.503 1.879.73-1.157 2.044-1.88 3.503-1.88 1.46 0 2.774.723 3.504 1.88.73-1.157 2.043-1.88 3.503-1.88s2.773.723 3.503 1.88c.73-1.157 2.044-1.88 3.503-1.88 2.263 0 4.16 1.808 4.16 4.12v2.097h2.774v-4.915zM8.98 43.987c1.46 0 2.7-1.23 2.7-2.675V18.688c0-1.446-1.24-2.674-2.7-2.674-1.46 0-2.7 1.228-2.7 2.674v22.624c0 1.445 1.24 2.674 2.7 2.674zm6.933 0c1.46 0 2.7-1.23 2.7-2.675V18.688c0-1.446-1.24-2.674-2.7-2.674-1.46 0-2.7 1.228-2.7 2.674v22.624c0 1.445 1.24 2.674 2.7 2.674zm7.007 0c1.46 0 2.7-1.23 2.7-2.675V18.688c0-1.446-1.24-2.674-2.7-2.674-1.46 0-2.7 1.228-2.7 2.674v22.624c0 1.445 1.24 2.674 2.7 2.674zm7.006 0c1.46 0 2.7-1.23 2.7-2.675V18.688c0-1.446-1.24-2.674-2.7-2.674-1.46 0-2.7 1.228-2.7 2.674v22.624c0 1.445 1.24 2.674 2.7 2.674z" fill="#444"/></svg>