<svg width="47" height="47" fill="none" xmlns="http://www.w3.org/2000/svg"><path d="M45.546 44.959h-5.328v-9.542c3.43-.505 6.058-3.758 6.058-7.734 0-3.252-1.825-6.143-4.452-7.3-.365-.144-.803 0-.949.361-.146.362 0 .796.365.94 2.117.94 3.576 3.325 3.576 5.927 0 3.18-2.043 5.783-4.598 6.216v-1.734l2.555-2.458a.694.694 0 000-1.012.71.71 0 00-1.022 0l-1.533 1.446v-2.313c0-.434-.292-.723-.73-.723-.437 0-.73.29-.73.723v6.216c-1.824-.217-3.43-1.518-4.306-3.47-.145-.361-.583-.505-.948-.361-.365.145-.511.578-.365.94 1.095 2.53 3.211 4.12 5.62 4.336v9.47H27.446V29.345a5.866 5.866 0 003.284 1.012c3.139 0 5.693-2.458 5.912-5.494a5.892 5.892 0 003.795-5.493c0-2.819-2.043-5.204-4.744-5.71.073-.217.073-.434.073-.65 0-1.807-1.313-3.398-3.138-3.687V9.18c0-3.253-2.628-5.855-5.912-5.855s-5.912 2.602-5.912 5.855c0 .289 0 .578.073.94.073.36.438.65.803.578.365-.073.657-.434.584-.796-.073-.289-.073-.506-.073-.722 0-2.458 1.97-4.41 4.452-4.41s4.452 1.952 4.452 4.41c0 .216 0 .433-.073.722l-.073.796h.876c1.314 0 2.409 1.084 2.409 2.385 0 .361-.073.65-.22.94l-.437.94 1.095.071c2.408.073 4.233 2.024 4.233 4.41 0 1.951-1.387 3.758-3.285 4.264l-.584.145v.722c0 2.458-1.97 4.41-4.452 4.41a4.45 4.45 0 01-3.284-1.446V24.43l3.357-3.831c.292-.29.22-.723-.073-1.012-.292-.29-.73-.217-1.021.072L27.3 22.19v-6c0-.433-.292-.722-.73-.722s-.73.29-.73.723v3.47l-1.97-2.024a.71.71 0 00-1.022 0 .694.694 0 000 1.011l2.7 2.747a.555.555 0 00.292.145v5.999c-.802.867-1.97 1.301-3.138 1.301-.584 0-1.168-.145-1.752-.361-.364-.145-.802 0-.948.361-.146.361 0 .795.365.94a6.28 6.28 0 002.262.433 5.726 5.726 0 003.138-.94v15.469l-14.596-.073v-8.24c5.692-.506 10.144-8.456 10.144-18.214C21.315 8.168 16.498 0 10.514 0 4.529 0 .004 8.24.004 18.287c0 9.541 4.379 17.42 9.926 18.142v8.385H1.39c-.437 0-.73.29-.73.723 0 .434.293.723.73.723l38.026.072h6.13c.438 0 .73-.29.73-.723 0-.361-.292-.65-.73-.65zM1.464 18.287c0-9.252 4.16-16.77 9.342-16.77s9.342 7.518 9.342 16.77c0 8.89-3.869 16.19-8.685 16.697v-7.517l3.284-3.759c.292-.29.219-.723-.073-1.012-.292-.289-.73-.217-1.022.072l-2.19 2.53v-3.541c0-.434-.291-.723-.73-.723-.437 0-.73.289-.73.723v5.637l-1.97-2.023a.71.71 0 00-1.022 0 .694.694 0 000 1.011l2.7 2.747a.555.555 0 00.293.145v5.71c-4.817-.795-8.54-7.951-8.54-16.697z" fill="#444"/></svg>