<svg width="46" height="36" fill="none" xmlns="http://www.w3.org/2000/svg"><path d="M45.984 12.07L23.504 0 .005 12.215l23.428 10.626 13.429-6.433v10.191c0 5.494-7.006 7.445-11.677 7.445h-4.526c-4.67 0-11.677-2.024-11.677-7.445v-8.818c0-.434-.292-.723-.73-.723s-.73.29-.73.723v8.746c0 5.855 6.642 8.89 13.137 8.89h4.525c6.496 0 13.138-3.035 13.138-8.89V15.685l1.97-.94v16.986c0 .434.292.723.73.723s.73-.29.73-.723V14.022l4.233-1.951zm-22.552 9.108l-20.07-9.107L23.504 1.59l19.268 10.335-1.97.94-18.539-1.301a.792.792 0 00-.803.65.79.79 0 00.657.796l15.984 1.156-14.67 7.011z" fill="#444"/></svg>