<svg width="37" height="47" fill="none" xmlns="http://www.w3.org/2000/svg"><path d="M6.589 22.317c.432 0 .72-.288.72-.719v-9.344c0-5.965 4.824-10.78 10.8-10.78 5.976 0 10.8 4.815 10.8 10.78v9.272c0 .431.288.719.72.719s.72-.288.72-.719v-9.272c0-6.756-5.472-12.218-12.24-12.218S5.869 5.498 5.869 12.254v9.272c0 .431.288.79.72.79z" fill="#444"/><path fill-rule="evenodd" clip-rule="evenodd" d="M17.389 39.567v-2.228c-1.656-.288-2.88-1.725-2.88-3.522a3.562 3.562 0 013.6-3.594c2.016 0 3.6 1.581 3.6 3.594 0 1.725-1.224 3.162-2.88 3.522v2.228h-1.44zm2.88-5.75c0-1.222-.936-2.156-2.16-2.156-1.224 0-2.16.934-2.16 2.156s.936 2.156 2.16 2.156c1.224 0 2.16-.934 2.16-2.156z" fill="#444"/><path fill-rule="evenodd" clip-rule="evenodd" d="M.109 23.036v23h36v-23h-36zm34.56 21.562H1.549V24.473h33.12v20.125z" fill="#444"/></svg>